<mxfile host="app.diagrams.net" modified="2023-09-24T13:06:52.191Z" agent="Mozilla/5.0 (Macintosh; Intel Mac OS X 10_15_7) AppleWebKit/537.36 (KHTML, like Gecko) Chrome/117.0.0.0 Safari/537.36 Edg/117.0.2045.40" version="21.8.0" etag="EqKBu4UOn3OVpD0ecor3" type="github">
  <diagram name="第 1 页" id="vKR55up7a1EwakZo14iR">
    <mxGraphModel>
      <root>
        <mxCell id="0" />
        <mxCell id="1" parent="0" />
      </root>
    </mxGraphModel>
  </diagram>
</mxfile>
